<svg width="1280" height="720" xmlns="http://www.w3.org/2000/svg" xmlns:xlink="http://www.w3.org/1999/xlink" overflow="hidden"><g><rect x="0" y="0" width="1280" height="720" fill="#FFFFFF"/><rect x="274.5" y="47.5001" width="264" height="71" stroke="#548235" stroke-width="1.33333" stroke-miterlimit="8" fill="#A9D18E"/><text font-family="Calibri,Calibri_MSFontService,sans-serif" font-weight="400" font-size="24" transform="translate(283.87 90)">main_module_function()</text><rect x="406.5" y="235.5" width="264" height="71" stroke="#548235" stroke-width="1.33333" stroke-miterlimit="8" fill="#E2F0D9"/><text font-family="Calibri,Calibri_MSFontService,sans-serif" font-weight="400" font-size="24" transform="translate(451.992 278)">helper_function()</text><rect x="274.5" y="484.5" width="264" height="71" stroke="#000000" stroke-width="1.33333" stroke-miterlimit="8" fill="#B4C7E7"/><text font-family="Calibri,Calibri_MSFontService,sans-serif" font-weight="400" font-size="24" transform="translate(294.593 527)">subpackage_function()</text><path d="M0-0.666667 38.3952-0.666667 38.3952 131.955 37.7286 131.289 68.7904 131.289 68.7904 132.622 37.0619 132.622 37.0619 0 37.7286 0.666667 0 0.666667ZM67.457 127.955 75.457 131.955 67.457 135.955Z" transform="matrix(1.83697e-16 1 1 -1.83697e-16 538.5 306.5)"/><rect x="340.5" y="382.5" width="132" height="41" stroke="#000000" stroke-width="1.33333" stroke-miterlimit="8" fill="none"/><text font-family="Calibri,Calibri_MSFontService,sans-serif" font-weight="400" font-size="24" transform="translate(349.653 410)">Not solved!</text><rect x="604.5" y="382.5" width="132" height="41" stroke="#000000" stroke-width="1.33333" stroke-miterlimit="8" fill="none"/><text font-family="Calibri,Calibri_MSFontService,sans-serif" font-weight="400" font-size="24" transform="translate(633.564 410)">Solved!</text><path d="M539.122 306.5 539.122 344.895 406.5 344.895 407.167 344.229 407.167 375.29 405.833 375.29 405.833 343.562 538.456 343.562 537.789 344.229 537.789 306.5ZM410.5 373.957 406.5 381.957 402.5 373.957Z"/><path d="M0.666667-1.1465e-06 0.66676 54.381-0.666573 54.381-0.666667 1.1465e-06ZM4.00009 53.0477 0.000104987 61.0477-3.99991 53.0477Z" transform="matrix(-1 0 0 1 406.5 423.5)"/><path d="M0-0.666667 38.3952-0.666667 38.3952 131.955 37.7286 131.289 68.7904 131.289 68.7904 132.622 37.0619 132.622 37.0619 0 37.7286 0.666667 0 0.666667ZM67.457 127.955 75.457 131.955 67.457 135.955Z" transform="matrix(1.83697e-16 1 1 -1.83697e-16 406.5 555.5)"/><rect x="208.5" y="631.5" width="132" height="41" stroke="#000000" stroke-width="1.33333" stroke-miterlimit="8" fill="none"/><text font-family="Calibri,Calibri_MSFontService,sans-serif" font-weight="400" font-size="24" transform="translate(217.698 659)">Not solved!</text><rect x="472.5" y="631.5" width="132" height="41" stroke="#000000" stroke-width="1.33333" stroke-miterlimit="8" fill="none"/><text font-family="Calibri,Calibri_MSFontService,sans-serif" font-weight="400" font-size="24" transform="translate(501.609 659)">Solved!</text><path d="M407.122 555.5 407.122 593.895 274.5 593.895 275.167 593.229 275.167 624.29 273.833 624.29 273.833 592.562 406.456 592.562 405.789 593.229 405.789 555.5ZM278.5 622.957 274.5 630.957 270.5 622.957Z"/><path d="M0 0.666667-23.1307 0.666667-22.464 0-22.464 380.888-23.1307 380.221 191.267 380.221 191.267 381.554-23.7974 381.554-23.7974-0.666667 0-0.666667ZM189.933 376.888 197.933 380.888 189.933 384.888Z" transform="matrix(1 -1.22465e-16 -1.22465e-16 -1 208.5 651.388)"/><path d="M736.5 401.833 805.293 401.833 805.293 516.066 804.627 515.399 866.086 515.399 866.086 516.732 803.96 516.732 803.96 402.5 804.627 403.167 736.5 403.167ZM864.753 512.066 872.753 516.066 864.753 520.066Z"/><rect x="872.5" y="486.5" width="211" height="60" stroke="#000000" stroke-width="1.33333" stroke-miterlimit="8" fill="none"/><text font-family="Calibri,Calibri_MSFontService,sans-serif" font-weight="400" font-size="24" transform="translate(889.701 523)">Print the solution.</text><path d="M0-0.666667 201.507-0.666667 201.507 135.556 200.84 134.89 261.542 134.89 261.542 136.223 200.173 136.223 200.173 0 200.84 0.666667 0 0.666667ZM260.208 131.556 268.208 135.556 260.208 139.556Z" transform="matrix(1 0 0 -1 604.5 652.056)"/><rect x="297.5" y="155.5" width="217" height="41" stroke="#000000" stroke-width="1.33333" stroke-miterlimit="8" fill="none"/><text font-family="Calibri,Calibri_MSFontService,sans-serif" font-weight="400" font-size="24" transform="translate(323.527 183)">Here is a riddle...</text><path d="M0.666667-1.89314e-06 0.666753 30.3042-0.666581 30.3043-0.666667 1.89314e-06ZM4.00008 28.9709 0.000104987 36.9709-3.99992 28.9709Z" transform="matrix(-1 0 0 1 406.5 118.5)"/><path d="M0-0.666667 19.9103-0.666667 19.9103 131.956 19.2436 131.289 31.8204 131.289 31.8204 132.622 18.5769 132.622 18.5769 0 19.2436 0.666667 0 0.666667ZM30.487 127.956 38.487 131.956 30.487 135.956Z" transform="matrix(1.83697e-16 1 1 -1.83697e-16 406.5 196.5)"/></g></svg>